<svg xmlns="http://www.w3.org/2000/svg" viewBox="0 0 1477 704" width="1477" height="704">
<path fill="#1d3461" fill-rule="evenodd" d="M545.5 274.0L570.0 273.5L571.0 274.5L574.0 274.5L581.0 278.5L622.5 329.0L652.0 367.5L652.5 288.0L656.5 280.0L662.0 275.5L667.0 273.5L680.5 274.0L680.5 410.0L679.0 411.5L657.0 411.5L656.0 410.5L653.0 410.5L644.5 402.0L575.0 315.5L574.5 396.0L571.5 403.0L566.0 408.5L562.0 410.5L547.0 411.5L545.5 410.0L545.5 275.0ZM741.5 309.0L758.0 308.5L759.0 309.5L763.0 309.5L775.0 313.5L783.0 318.5L792.5 328.0L798.5 339.0L801.5 349.0L802.5 367.0L801.0 368.5L723.0 368.5L722.5 371.0L725.5 378.0L736.0 387.5L750.0 391.5L758.0 391.5L759.0 390.5L767.0 389.5L775.0 385.5L781.0 380.5L795.5 396.0L789.0 402.5L783.0 406.5L770.0 411.5L766.0 411.5L765.0 412.5L753.0 412.5L752.0 413.5L751.0 412.5L740.0 412.5L739.0 411.5L729.0 409.5L717.0 403.5L708.5 396.0L702.5 388.0L698.5 380.0L696.5 373.0L696.5 368.0L695.5 367.0L695.5 354.0L696.5 353.0L696.5 348.0L698.5 341.0L706.5 327.0L714.0 319.5L726.0 312.5L736.0 309.5L741.0 309.5ZM858.5 309.0L876.0 308.5L877.0 309.5L881.0 309.5L891.0 312.5L902.0 318.5L913.5 330.0L920.5 345.0L921.5 355.0L922.5 356.0L922.5 366.0L921.5 367.0L921.5 373.0L918.5 382.0L911.5 394.0L904.0 401.5L890.0 409.5L880.0 411.5L879.0 412.5L864.0 413.5L863.0 412.5L855.0 412.5L840.0 407.5L832.0 402.5L821.5 392.0L814.5 378.0L813.5 370.0L812.5 369.0L812.5 353.0L816.5 339.0L823.5 327.0L833.0 318.5L846.0 311.5L853.0 309.5L858.0 309.5ZM746.5 329.0L752.0 328.5L753.0 329.5L758.0 329.5L765.0 332.5L772.5 340.0L775.5 346.0L776.5 351.0L723.0 351.5L722.5 348.0L724.5 343.0L733.0 333.5L741.0 329.5L746.0 329.5ZM861.5 331.0L873.0 330.5L874.0 331.5L877.0 331.5L883.0 334.5L892.5 345.0L895.5 353.0L895.5 368.0L894.5 369.0L894.5 372.0L889.5 381.0L885.0 385.5L880.0 388.5L874.0 390.5L861.0 390.5L850.0 385.5L842.5 377.0L839.5 370.0L839.5 365.0L838.5 364.0L838.5 357.0L839.5 356.0L840.5 348.0L844.5 341.0L850.0 335.5L855.0 332.5L861.0 331.5ZM1286.5 456.0L1290.5 456.0L1285.0 460.5L1283.5 460.0L1286.0 456.5ZM686.5 462.0L692.0 462.5L697.5 467.0L699.5 471.0L699.5 479.0L697.5 483.0L691.0 487.5L683.0 487.5L679.0 485.5L674.5 480.0L673.5 474.0L675.5 468.0L680.0 463.5L686.0 462.5ZM645.5 463.0L649.0 462.5L650.5 464.0L650.5 466.0L654.5 473.0L658.0 482.5L661.5 477.0L661.5 475.0L666.5 464.0L668.0 462.5L670.0 462.5L670.5 464.0L660.0 487.5L657.0 487.5L655.5 486.0L646.0 463.5ZM703.5 463.0L723.5 463.0L723.0 465.5L715.5 466.0L715.0 487.5L713.0 487.5L711.5 486.0L711.5 466.0L705.0 465.5L703.5 464.0ZM729.5 463.0L744.0 462.5L746.0 463.5L749.5 468.0L749.5 474.0L748.5 476.0L744.5 479.0L749.5 487.0L747.0 487.5L741.0 479.5L734.0 479.5L733.5 487.0L731.0 487.5L729.5 486.0L729.5 464.0ZM757.5 463.0L775.5 463.0L774.0 465.5L761.5 466.0L762.0 473.5L773.5 474.0L773.0 476.5L762.0 476.5L761.5 484.0L775.0 484.5L775.0 487.5L757.5 487.0L757.5 464.0ZM791.5 463.0L811.5 463.0L811.0 465.5L803.5 466.0L803.0 487.5L800.5 487.0L800.5 466.0L792.0 465.5L791.5 464.0ZM818.5 463.0L832.0 462.5L834.0 463.5L837.5 468.0L837.5 474.0L836.5 476.0L832.5 479.0L836.5 484.0L837.5 487.0L835.0 487.5L829.0 479.5L822.0 479.5L821.5 487.0L819.0 487.5L818.5 464.0ZM852.5 463.0L856.0 462.5L857.5 464.0L867.5 486.0L867.0 487.5L865.0 487.5L861.0 481.5L848.0 481.5L846.5 486.0L845.0 487.5L842.5 487.0L845.5 478.0L852.5 464.0ZM872.5 463.0L885.5 463.0L885.5 483.0L884.5 485.0L881.0 487.5L874.0 487.5L870.5 484.0L872.0 482.5L875.0 484.5L880.0 484.5L881.5 483.0L882.5 481.0L882.5 466.0L874.0 465.5L872.5 464.0ZM894.5 463.0L911.5 463.0L911.0 465.5L897.5 466.0L897.5 472.0L899.0 473.5L910.5 474.0L909.0 476.5L898.0 476.5L897.5 483.0L899.0 484.5L912.5 485.0L912.0 487.5L894.5 487.0L894.5 464.0ZM916.5 463.0L937.5 463.0L936.0 465.5L928.5 466.0L928.0 487.5L925.5 487.0L925.5 466.0L918.0 465.5L916.5 464.0ZM964.5 463.0L967.0 462.5L969.5 465.0L981.0 480.5L981.5 463.0L985.5 463.0L985.0 487.5L983.0 487.5L979.5 484.0L968.0 469.5L967.5 487.0L964.5 487.0L964.5 464.0ZM1000.5 463.0L1010.0 462.5L1015.5 466.0L1018.5 472.0L1018.5 478.0L1015.5 484.0L1010.0 487.5L1001.0 487.5L994.5 482.0L992.5 478.0L992.5 472.0L995.5 466.0L1000.0 463.5ZM1022.5 463.0L1042.5 463.0L1042.0 465.5L1033.5 466.0L1034.5 467.0L1034.5 486.0L1033.0 487.5L1030.5 487.0L1030.5 466.0L1023.0 465.5L1022.5 464.0ZM1048.5 463.0L1063.0 462.5L1065.0 463.5L1068.5 468.0L1068.5 474.0L1066.5 477.0L1063.5 479.0L1068.5 487.0L1066.0 487.5L1060.0 479.5L1053.0 479.5L1052.5 486.0L1050.0 487.5L1048.5 486.0L1048.5 464.0ZM1076.5 463.0L1093.5 463.0L1093.0 465.5L1079.5 466.0L1079.5 472.0L1081.0 473.5L1092.5 474.0L1091.0 476.5L1080.0 476.5L1079.5 484.0L1094.5 485.0L1094.0 487.5L1076.5 487.0L1076.5 464.0ZM1113.5 463.0L1127.0 462.5L1130.0 463.5L1133.5 468.0L1133.5 473.0L1131.5 477.0L1127.0 479.5L1118.0 479.5L1116.5 487.0L1114.0 487.5L1113.5 464.0ZM1140.5 463.0L1154.0 462.5L1157.0 463.5L1160.5 468.0L1160.5 474.0L1159.5 476.0L1155.5 479.0L1160.5 487.0L1158.0 487.5L1152.0 479.5L1145.0 479.5L1144.5 487.0L1142.0 487.5L1140.5 486.0L1140.5 464.0ZM1168.5 463.0L1171.5 463.0L1171.0 487.5L1168.5 487.0L1168.5 464.0ZM1187.5 463.0L1197.0 462.5L1203.5 468.0L1205.5 472.0L1205.5 477.0L1203.5 482.0L1199.0 486.5L1196.0 487.5L1188.0 487.5L1182.5 484.0L1179.5 479.0L1179.5 471.0L1181.5 467.0L1184.0 464.5L1187.0 463.5ZM1212.5 463.0L1226.0 462.5L1230.0 464.5L1232.5 468.0L1232.5 473.0L1230.5 477.0L1227.5 479.0L1232.5 487.0L1229.0 487.5L1224.0 479.5L1217.0 479.5L1216.5 486.0L1215.0 487.5L1213.0 487.5L1212.5 464.0ZM1240.5 463.0L1243.0 462.5L1244.5 464.0L1243.5 467.0L1243.0 487.5L1240.5 487.0L1240.5 464.0ZM1250.5 463.0L1270.5 463.0L1270.0 465.5L1262.5 466.0L1262.5 486.0L1261.0 487.5L1258.5 487.0L1258.5 466.0L1251.0 465.5L1250.5 464.0ZM1276.5 463.0L1294.5 463.0L1293.0 465.5L1280.5 466.0L1281.0 473.5L1292.5 474.0L1292.0 476.5L1281.0 476.5L1280.5 484.0L1294.0 484.5L1294.0 487.5L1276.5 487.0L1276.5 464.0ZM682.5 466.0L691.0 465.5L695.5 470.0L696.5 472.0L696.5 478.0L695.5 480.0L690.0 484.5L684.0 484.5L682.0 483.5L677.5 478.0L677.5 471.0L678.5 469.0L682.0 466.5ZM733.5 466.0L743.0 465.5L746.5 469.0L746.5 472.0L743.0 476.5L734.0 476.5L733.5 467.0ZM821.5 466.0L831.0 465.5L834.5 469.0L834.5 473.0L831.0 476.5L822.0 476.5L821.5 467.0ZM1001.5 466.0L1009.0 465.5L1014.5 470.0L1015.5 477.0L1013.5 481.0L1009.0 484.5L1002.0 484.5L997.5 481.0L995.5 474.0L997.5 469.0L1001.0 466.5ZM1052.5 466.0L1062.0 465.5L1065.5 470.0L1065.5 472.0L1063.0 475.5L1061.0 476.5L1053.0 476.5L1052.5 467.0ZM1116.5 466.0L1127.0 465.5L1130.5 470.0L1130.5 472.0L1128.0 475.5L1126.0 476.5L1118.0 476.5L1116.5 475.0L1116.5 467.0ZM1144.5 466.0L1154.0 465.5L1157.5 469.0L1157.5 472.0L1155.0 475.5L1153.0 476.5L1145.0 476.5L1144.5 467.0ZM1188.5 466.0L1196.0 465.5L1200.5 469.0L1201.5 471.0L1201.5 479.0L1200.5 481.0L1196.0 484.5L1189.0 484.5L1184.5 481.0L1182.5 477.0L1182.5 473.0L1183.5 470.0L1188.0 466.5ZM1216.5 466.0L1226.0 465.5L1229.5 470.0L1228.5 474.0L1227.0 475.5L1225.0 476.5L1217.0 476.5L1216.5 467.0ZM854.5 467.0L855.5 467.0L857.5 471.0L859.5 478.0L849.5 478.0L854.0 467.5ZM941.5 483.0L943.0 482.5L944.5 484.0L944.5 489.0L943.5 491.0L942.0 492.5L940.5 492.0L941.5 490.0L941.0 483.5Z"></path>
<path fill="#8dc21f" fill-rule="evenodd" d="M423.5 172.0L426.0 171.5L427.5 174.0L427.5 177.0L432.5 194.0L435.5 200.0L439.0 203.5L450.0 208.5L465.0 211.5L466.5 213.0L466.5 215.0L465.0 216.5L457.0 217.5L447.0 220.5L439.0 224.5L435.5 228.0L429.5 243.0L427.5 255.0L426.0 256.5L424.0 256.5L422.5 255.0L419.5 239.0L414.5 228.0L411.0 224.5L403.0 220.5L389.0 216.5L385.0 216.5L383.5 215.0L383.5 213.0L385.0 211.5L400.0 208.5L411.0 203.5L414.5 200.0L419.5 189.0L423.0 172.5ZM424.5 188.0L425.5 188.0L427.5 192.0L428.5 197.0L431.5 203.0L436.0 207.5L451.5 214.0L436.0 220.5L431.5 225.0L427.5 233.0L425.0 241.5L418.5 225.0L414.0 220.5L399.5 214.0L401.0 212.5L406.0 211.5L414.0 207.5L418.5 203.0L424.5 189.0ZM293.5 190.0L310.0 189.5L311.0 190.5L322.0 190.5L323.0 191.5L330.0 191.5L331.0 192.5L341.0 193.5L365.0 200.5L371.5 205.0L370.5 208.0L369.0 209.5L366.0 209.5L361.0 207.5L351.0 206.5L350.0 205.5L343.0 205.5L342.0 204.5L314.0 204.5L313.0 205.5L300.0 206.5L299.0 207.5L295.0 207.5L294.0 208.5L284.0 210.5L281.0 212.5L271.0 215.5L255.0 223.5L243.0 231.5L232.0 240.5L219.5 253.0L211.5 263.0L203.5 275.0L192.5 298.0L187.5 315.0L186.5 325.0L185.5 326.0L185.5 333.0L184.5 334.0L184.5 357.0L185.5 358.0L186.5 372.0L192.5 393.0L197.5 403.0L197.5 405.0L204.5 417.0L204.5 419.0L202.0 420.5L195.5 412.0L188.5 397.0L182.5 377.0L181.5 367.0L180.5 366.0L180.5 359.0L179.5 358.0L179.5 335.0L180.5 334.0L180.5 326.0L181.5 325.0L183.5 310.0L190.5 290.0L204.5 264.0L215.5 250.0L231.0 234.5L254.0 218.5L272.0 209.5L293.5 203.0L287.0 202.5L286.0 203.5L274.0 205.5L259.0 210.5L238.0 220.5L220.0 232.5L209.0 241.5L192.5 259.0L177.5 280.0L164.5 308.0L161.5 321.0L159.5 325.0L159.5 329.0L157.5 335.0L157.5 341.0L156.5 342.0L156.5 351.0L155.5 352.0L156.5 382.0L157.5 383.0L157.5 389.0L158.5 390.0L159.5 399.0L168.5 426.0L178.5 445.0L187.5 458.0L196.0 466.5L204.0 469.5L221.0 468.5L227.0 466.5L238.0 460.5L240.0 460.5L257.0 451.5L259.0 451.5L272.0 444.5L274.0 444.5L319.0 422.5L321.0 422.5L330.0 417.5L332.0 417.5L339.0 413.5L341.0 413.5L348.0 409.5L350.0 409.5L359.0 404.5L361.0 404.5L370.0 399.5L372.0 399.5L389.0 391.5L401.0 387.5L416.0 386.5L417.0 385.5L439.0 385.5L440.0 386.5L460.0 387.5L461.0 388.5L469.0 389.5L479.0 394.5L484.5 400.0L489.0 408.5L496.0 410.5L502.5 416.0L504.5 419.0L506.5 426.0L506.5 439.0L505.5 441.0L502.0 443.5L496.0 443.5L493.5 442.0L491.5 438.0L490.5 430.0L487.5 422.0L487.5 419.0L485.5 416.0L485.5 413.0L483.5 409.0L480.0 406.5L467.0 405.5L466.0 404.5L457.0 404.5L456.0 403.5L440.0 403.5L439.0 402.5L413.0 403.5L411.5 405.0L417.5 413.0L421.5 422.0L421.5 426.0L422.5 427.0L422.5 442.0L423.5 443.0L423.5 448.0L424.5 449.0L424.5 453.0L426.5 460.0L431.0 465.5L442.0 469.5L448.0 469.5L449.0 470.5L476.0 470.5L477.0 469.5L483.0 469.5L492.0 465.5L495.5 462.0L495.5 455.0L497.0 453.5L499.0 453.5L500.5 455.0L500.5 461.0L501.5 462.0L501.5 493.0L499.5 499.0L492.0 505.5L479.0 507.5L478.5 509.0L473.0 513.5L462.0 513.5L460.0 512.5L457.0 508.5L428.0 509.5L427.0 508.5L421.0 508.5L416.0 506.5L412.0 506.5L409.5 511.0L406.0 514.5L403.0 515.5L402.0 514.5L399.0 514.5L394.5 510.0L391.5 502.0L391.5 492.0L392.5 491.0L392.5 488.0L394.0 486.5L396.0 486.5L397.5 488.0L396.5 491.0L396.5 501.0L397.5 502.0L397.5 505.0L402.0 510.5L405.5 508.0L408.5 499.0L408.5 491.0L405.5 483.0L403.0 480.5L390.0 478.5L379.0 472.5L377.0 472.5L372.0 469.5L370.0 469.5L365.0 466.5L356.0 463.5L353.0 463.5L349.0 461.5L345.0 461.5L340.0 459.5L335.0 459.5L334.0 458.5L328.0 458.5L326.0 457.5L324.5 456.0L324.5 454.0L326.0 452.5L334.0 451.5L335.0 450.5L351.0 449.5L352.0 448.5L363.0 448.5L364.0 447.5L387.0 447.5L396.0 450.5L408.0 456.5L410.0 458.5L410.5 448.0L409.5 447.0L409.5 441.0L408.5 440.0L408.5 435.0L407.5 434.0L406.5 427.0L403.5 421.0L403.5 419.0L398.0 412.5L390.0 411.5L378.0 416.5L355.0 423.5L349.0 426.5L346.0 426.5L334.0 431.5L331.0 431.5L319.0 435.5L316.0 437.5L292.0 445.5L289.0 445.5L279.0 449.5L274.0 449.5L253.0 459.5L253.0 460.5L257.0 460.5L258.0 459.5L277.0 458.5L278.0 457.5L300.0 457.5L301.0 458.5L308.0 458.5L310.0 459.5L310.5 462.0L307.0 464.5L295.0 465.5L294.0 466.5L290.0 466.5L289.0 467.5L285.0 467.5L284.0 468.5L280.0 468.5L279.0 469.5L275.0 469.5L274.0 470.5L270.0 470.5L269.0 471.5L265.0 471.5L264.0 472.5L249.0 475.5L205.0 490.5L200.0 493.5L198.0 493.5L193.0 496.5L184.0 499.5L163.0 510.5L160.0 510.5L158.5 509.0L158.5 507.0L173.0 493.5L190.0 482.5L204.5 475.0L193.0 470.5L188.0 466.5L181.5 459.0L173.5 447.0L159.5 417.0L154.5 396.0L153.5 395.0L152.5 383.0L151.5 382.0L151.5 372.0L150.5 371.0L151.5 342.0L152.5 341.0L152.5 335.0L153.5 334.0L156.5 317.0L163.5 297.0L173.5 277.0L183.5 262.0L192.5 251.0L213.0 231.5L233.0 217.5L255.0 206.5L277.0 199.5L297.5 196.0L283.0 195.5L282.0 196.5L275.0 196.5L274.0 197.5L269.0 197.5L268.0 198.5L257.0 200.5L253.0 202.5L250.0 202.5L236.0 208.5L234.0 208.5L216.0 217.5L202.0 226.5L188.0 237.5L167.5 259.0L154.5 277.0L142.5 300.0L135.5 319.0L135.5 322.0L132.5 330.0L130.5 344.0L129.5 345.0L129.5 353.0L128.5 354.0L128.5 384.0L129.5 385.0L129.5 394.0L130.5 395.0L130.5 400.0L131.5 401.0L133.5 414.0L139.5 432.0L149.5 454.0L164.5 477.0L164.5 480.0L163.0 481.5L159.5 479.0L150.5 466.0L137.5 441.0L129.5 418.0L126.5 401.0L125.5 400.0L125.5 394.0L124.5 393.0L124.5 385.0L123.5 384.0L123.5 355.0L124.5 354.0L124.5 346.0L125.5 345.0L125.5 339.0L126.5 338.0L126.5 334.0L127.5 333.0L129.5 322.0L137.5 299.0L147.5 279.0L163.5 256.0L183.0 235.5L199.0 222.5L213.0 213.5L243.0 199.5L252.0 197.5L256.0 195.5L260.0 195.5L261.0 194.5L274.0 192.5L275.0 191.5L293.0 190.5ZM293.5 202.0L297.0 201.5L297.0 202.5L294.0 202.5ZM249.5 241.0L252.0 240.5L258.0 242.5L269.5 251.0L272.5 256.0L284.5 269.0L362.0 361.5L364.5 354.0L364.5 350.0L365.5 349.0L367.5 338.0L368.5 337.0L370.5 325.0L371.5 324.0L371.5 319.0L372.5 318.0L373.5 311.0L378.5 300.0L381.5 296.0L393.0 285.5L404.0 279.5L414.0 276.5L419.0 276.5L420.0 275.5L430.0 275.5L431.5 277.0L431.5 281.0L430.5 282.0L427.5 299.0L424.5 308.0L422.5 321.0L419.5 330.0L418.5 339.0L414.5 352.0L414.5 356.0L412.5 361.0L409.5 378.0L406.0 380.5L404.5 379.0L404.5 374.0L406.5 369.0L406.5 365.0L409.5 356.0L409.5 352.0L413.5 338.0L414.5 329.0L415.5 328.0L415.5 325.0L418.5 316.0L418.5 312.0L420.5 307.0L420.5 303.0L422.5 298.0L422.5 294.0L424.5 289.0L424.5 285.0L425.5 284.0L425.0 280.5L414.0 281.5L399.0 287.5L392.0 292.5L383.5 302.0L377.5 315.0L377.5 319.0L375.5 324.0L375.5 328.0L373.5 333.0L373.5 337.0L371.5 342.0L371.5 346.0L370.5 347.0L370.5 351.0L369.5 352.0L366.5 367.0L365.0 369.5L363.0 369.5L360.5 368.0L355.5 361.0L348.5 354.0L285.5 278.0L273.5 265.0L269.5 259.0L261.0 250.5L253.0 246.5L251.5 248.0L248.5 265.0L245.5 274.0L245.5 278.0L243.5 283.0L243.5 287.0L241.5 292.0L241.5 296.0L239.5 301.0L239.5 305.0L237.5 310.0L237.5 314.0L235.5 319.0L235.5 323.0L233.5 328.0L231.5 341.0L228.5 350.0L228.5 354.0L226.5 359.0L225.5 368.0L222.5 377.0L222.5 381.0L220.5 386.0L220.5 390.0L218.5 395.0L216.5 408.0L213.5 417.0L213.5 421.0L211.5 426.0L209.5 439.0L216.0 439.5L217.0 438.5L221.0 438.5L228.0 436.5L236.0 432.5L243.0 427.5L252.5 416.0L257.5 404.0L257.5 400.0L259.5 395.0L259.5 391.0L261.5 386.0L261.5 382.0L265.5 368.0L265.5 364.0L267.5 359.0L269.5 346.0L272.5 337.0L272.5 333.0L275.0 328.5L278.0 329.5L285.5 338.0L294.5 350.0L337.5 400.0L339.5 403.0L339.5 406.0L336.0 406.5L333.5 404.0L285.5 346.0L278.5 338.0L277.0 337.5L261.5 408.0L258.5 414.0L258.5 416.0L253.5 424.0L244.0 433.5L234.0 439.5L222.0 443.5L205.0 444.5L203.5 443.0L204.5 434.0L205.5 433.0L206.5 425.0L210.5 412.0L213.5 394.0L214.5 393.0L217.5 376.0L219.5 371.0L219.5 367.0L222.5 358.0L222.5 354.0L225.5 345.0L225.5 341.0L227.5 336.0L227.5 332.0L229.5 327.0L229.5 323.0L231.5 318.0L231.5 314.0L233.5 309.0L234.5 300.0L235.5 299.0L238.5 282.0L241.5 273.0L241.5 269.0L243.5 264.0L245.5 251.0L246.5 250.0L247.5 243.0L249.0 241.5ZM665.5 274.0L666.0 273.5L666.0 274.5ZM659.5 277.0L660.0 276.5L660.0 277.5ZM579.5 278.0L580.0 277.5L580.0 278.5ZM1368.5 279.0L1394.5 279.0L1394.5 410.0L1387.0 410.5L1386.0 411.5L1373.0 411.5L1368.5 410.0L1368.5 280.0ZM655.5 281.0L656.0 280.5L656.0 281.5ZM585.5 284.0L586.0 283.5L586.0 284.5ZM652.5 287.0L653.0 286.5L653.0 287.5ZM590.5 290.0L591.0 289.5L591.0 290.5ZM942.5 291.0L967.0 290.5L967.5 314.0L972.0 314.5L973.0 315.5L975.0 314.5L988.0 314.5L989.0 315.5L990.0 314.5L991.5 316.0L991.0 335.5L967.5 336.0L967.5 382.0L969.5 387.0L972.0 389.5L977.0 391.5L982.0 391.5L991.0 388.5L996.5 404.0L996.5 407.0L994.0 409.5L988.0 411.5L985.0 411.5L984.0 412.5L968.0 412.5L967.0 411.5L960.0 410.5L953.0 406.5L948.5 402.0L944.5 395.0L942.5 388.0L942.5 336.0L929.0 335.5L927.5 334.0L927.5 315.0L942.5 314.0L942.5 292.0ZM594.5 295.0L595.0 294.5L595.0 295.5ZM602.5 305.0L603.0 304.5L603.0 305.5ZM739.5 309.0L741.0 308.5L741.5 309.0L740.0 309.5ZM758.5 309.0L759.0 308.5L759.0 309.5ZM856.5 309.0L858.0 308.5L858.5 309.0L857.0 309.5ZM876.5 309.0L877.0 308.5L877.0 309.5ZM606.5 310.0L607.0 309.5L607.0 310.5ZM734.5 310.0L735.0 309.5L735.0 310.5ZM763.5 310.0L764.0 309.5L764.0 310.5ZM881.5 310.0L882.0 309.5L882.0 310.5ZM730.5 311.0L731.0 310.5L731.0 311.5ZM767.5 311.0L768.0 310.5L768.0 311.5ZM885.5 311.0L886.0 310.5L886.0 311.5ZM727.5 312.0L728.0 311.5L728.0 312.5ZM888.5 312.0L889.0 311.5L889.0 312.5ZM772.5 313.0L773.0 312.5L773.0 313.5ZM842.5 313.0L843.0 312.5L843.0 313.5ZM1057.5 313.0L1063.5 313.0L1063.5 329.0L1064.5 330.0L1063.5 336.0L1052.0 336.5L1044.0 339.5L1037.5 345.0L1033.5 353.0L1033.5 356.0L1032.5 357.0L1032.5 410.0L1026.0 410.5L1025.0 411.5L1010.0 411.5L1006.5 410.0L1006.5 315.0L1030.0 314.5L1031.0 326.5L1037.0 320.5L1043.0 316.5L1045.0 316.5L1051.0 313.5L1057.0 313.5ZM1105.5 313.0L1119.0 312.5L1120.0 313.5L1126.0 313.5L1133.0 315.5L1145.0 322.5L1150.5 329.0L1155.5 341.0L1155.5 347.0L1156.5 348.0L1156.5 410.0L1153.0 411.5L1151.0 410.5L1150.0 411.5L1134.0 411.5L1132.5 410.0L1132.0 401.5L1124.0 408.5L1116.0 411.5L1113.0 411.5L1112.0 412.5L1095.0 412.5L1085.0 409.5L1080.0 406.5L1071.5 397.0L1068.5 389.0L1068.5 376.0L1072.5 367.0L1080.0 359.5L1086.0 356.5L1092.0 354.5L1096.0 354.5L1097.0 353.5L1130.5 352.0L1130.5 347.0L1128.5 342.0L1123.0 336.5L1115.0 333.5L1103.0 333.5L1090.0 337.5L1083.0 342.5L1080.5 341.0L1073.5 327.0L1073.5 325.0L1079.0 320.5L1087.0 316.5L1097.0 314.5L1098.0 313.5L1105.0 313.5ZM1304.5 313.0L1316.0 312.5L1317.0 313.5L1322.0 313.5L1329.0 315.5L1337.0 319.5L1348.5 330.0L1352.5 336.0L1356.5 346.0L1357.5 354.0L1358.5 355.0L1358.5 369.0L1357.0 370.5L1287.0 370.5L1286.5 373.0L1289.5 380.0L1299.0 388.5L1308.0 391.5L1320.0 391.5L1321.0 390.5L1324.0 390.5L1332.0 386.5L1338.0 381.5L1352.5 397.0L1341.0 406.5L1332.0 410.5L1324.0 411.5L1323.0 412.5L1303.0 412.5L1285.0 406.5L1279.0 402.5L1267.5 390.0L1262.5 378.0L1261.5 369.0L1260.5 368.0L1260.5 357.0L1261.5 356.0L1261.5 351.0L1263.5 344.0L1270.5 331.0L1278.0 323.5L1289.0 316.5L1298.0 313.5L1304.0 313.5ZM609.5 314.0L610.0 313.5L610.0 314.5ZM895.5 315.0L896.0 314.5L896.0 315.5ZM1159.5 315.0L1185.5 315.0L1211.0 380.5L1213.5 377.0L1213.5 375.0L1215.5 372.0L1215.5 370.0L1217.5 367.0L1217.5 365.0L1219.5 362.0L1219.5 360.0L1221.5 357.0L1221.5 355.0L1223.5 352.0L1223.5 350.0L1225.5 347.0L1225.5 345.0L1227.5 342.0L1237.5 315.0L1263.5 315.0L1248.5 351.0L1248.5 353.0L1245.5 358.0L1245.5 360.0L1243.5 363.0L1233.5 390.0L1227.5 402.0L1225.5 409.0L1221.0 411.5L1220.0 410.5L1214.0 410.5L1213.0 411.5L1205.0 411.5L1204.0 410.5L1201.0 411.5L1197.5 410.0L1192.5 399.0L1192.5 397.0L1189.5 392.0L1183.5 375.0L1180.5 370.0L1179.5 365.0L1176.5 360.0L1166.5 333.0L1163.5 328.0L1159.5 316.0ZM778.5 316.0L779.0 315.5L779.0 316.5ZM836.5 316.0L837.0 315.5L837.0 316.5ZM717.5 317.0L718.0 316.5L718.0 317.5ZM576.5 318.0L577.0 317.5L577.0 318.5ZM781.5 318.0L782.0 317.5L782.0 318.5ZM833.5 318.0L834.0 317.5L834.0 318.5ZM613.5 319.0L614.0 318.5L614.0 319.5ZM785.5 321.0L786.0 320.5L789.5 324.0L786.0 321.5ZM829.5 321.0L830.0 320.5L830.0 321.5ZM580.5 323.0L581.0 322.5L581.0 323.5ZM906.5 323.0L907.0 322.5L910.5 326.0L907.0 323.5ZM617.5 324.0L618.0 323.5L618.0 324.5ZM584.5 328.0L585.0 327.5L585.0 328.5ZM705.5 328.0L706.0 327.5L706.0 328.5ZM746.5 329.0L749.0 328.5L749.0 329.5L747.0 329.5ZM750.5 329.0L752.0 328.5L752.5 329.0L751.0 329.5ZM792.5 329.0L793.0 328.5L793.0 329.5ZM740.5 330.0L741.0 329.5L741.0 330.5ZM757.5 330.0L758.0 329.5L758.0 330.5ZM703.5 331.0L704.0 330.5L704.0 331.5ZM760.5 331.0L761.0 330.5L761.0 331.5ZM872.5 331.0L873.0 330.5L873.0 331.5ZM762.5 332.0L763.0 331.5L763.0 332.5ZM876.5 332.0L877.0 331.5L877.0 332.5ZM588.5 333.0L589.0 332.5L589.0 333.5ZM764.5 333.0L765.0 332.5L765.0 333.5ZM854.5 333.0L855.0 332.5L855.0 333.5ZM914.5 333.0L915.0 332.5L915.0 333.5ZM1307.5 333.0L1317.0 333.5L1325.0 337.5L1331.5 345.0L1331.5 347.0L1333.5 350.0L1333.5 353.0L1331.0 354.5L1288.0 354.5L1286.5 353.0L1286.5 350.0L1291.5 341.0L1300.0 334.5L1307.0 333.5ZM625.5 334.0L626.0 333.5L626.0 334.5ZM732.5 334.0L733.0 333.5L733.0 334.5ZM795.5 334.0L796.0 333.5L796.0 334.5ZM818.5 334.0L819.0 333.5L819.0 334.5ZM852.5 334.0L853.0 333.5L853.0 334.5ZM882.5 335.0L883.0 334.5L883.0 335.5ZM700.5 336.0L701.0 335.5L701.0 336.5ZM796.5 336.0L797.0 335.5L797.0 336.5ZM817.5 336.0L818.0 335.5L818.0 336.5ZM849.5 336.0L850.5 336.0L849.0 337.5L849.0 336.5ZM592.5 338.0L593.0 337.5L593.0 338.5ZM699.5 338.0L700.0 337.5L700.0 338.5ZM629.5 339.0L630.0 338.5L630.0 339.5ZM917.5 339.0L918.0 338.5L918.0 339.5ZM798.5 341.0L799.0 340.5L799.0 341.5ZM815.5 341.0L816.0 340.5L816.0 341.5ZM844.5 341.0L845.0 340.5L845.0 341.5ZM697.5 343.0L698.0 342.5L698.0 343.5ZM724.5 343.0L725.0 342.5L725.0 343.5ZM814.5 343.0L815.0 342.5L815.0 343.5ZM633.5 344.0L634.0 343.5L634.0 344.5ZM842.5 344.0L843.0 343.5L843.0 344.5ZM723.5 345.0L724.0 344.5L724.0 345.5ZM891.5 345.0L892.0 344.5L892.0 345.5ZM696.5 347.0L697.0 346.5L697.0 347.5ZM813.5 347.0L814.0 346.5L814.0 347.5ZM892.5 347.0L893.0 346.5L893.0 347.5ZM722.5 348.0L723.0 347.5L723.0 348.5ZM800.5 348.0L801.0 347.5L801.0 348.5ZM840.5 348.0L841.0 347.5L841.0 348.5ZM601.5 349.0L602.0 348.5L602.0 349.5ZM637.5 349.0L638.0 348.5L638.0 349.5ZM775.5 349.0L776.0 348.5L776.0 349.5ZM839.5 351.0L840.0 350.5L840.0 351.5ZM812.5 352.0L813.0 351.5L813.0 352.5ZM604.5 353.0L605.0 352.5L605.0 353.5ZM695.5 353.0L696.0 352.5L696.0 353.5ZM894.5 353.0L895.0 352.5L895.0 353.5ZM641.5 354.0L642.0 353.5L642.0 354.5ZM801.5 354.0L802.5 354.0L802.5 355.0L801.5 355.0ZM921.5 354.0L922.5 354.0L922.5 355.0L921.5 355.0ZM838.5 357.0L839.5 357.0L839.5 358.0L838.5 358.0ZM609.5 359.0L610.0 358.5L610.0 359.5ZM645.5 359.0L646.0 358.5L646.0 359.5ZM648.5 363.0L649.0 362.5L649.0 363.5ZM838.5 363.0L839.5 363.0L839.5 364.0L838.5 364.0ZM613.5 364.0L614.0 363.5L614.0 364.5ZM651.5 367.0L652.0 366.5L652.0 367.5ZM921.5 367.0L922.5 367.0L922.5 368.0L921.5 368.0ZM695.5 368.0L696.0 367.5L696.0 368.5ZM894.5 368.0L895.0 367.5L895.0 368.5ZM617.5 369.0L618.0 368.5L618.0 369.5ZM812.5 370.0L813.0 369.5L813.0 370.5ZM839.5 370.0L840.0 369.5L840.0 370.5ZM1105.5 370.0L1130.0 369.5L1130.5 381.0L1128.5 385.0L1123.0 390.5L1116.0 393.5L1108.0 394.5L1107.0 393.5L1102.0 393.5L1098.0 391.5L1093.5 385.0L1093.5 378.0L1098.0 372.5L1102.0 370.5L1105.0 370.5ZM893.5 372.0L894.0 371.5L894.0 372.5ZM840.5 373.0L841.0 372.5L841.0 373.5ZM696.5 374.0L697.0 373.5L697.0 374.5ZM622.5 375.0L623.0 374.5L623.0 375.5ZM813.5 375.0L814.0 374.5L814.0 375.5ZM842.5 377.0L843.0 376.5L843.0 377.5ZM919.5 377.0L920.0 376.5L920.0 377.5ZM890.5 378.0L891.0 377.5L891.0 378.5ZM626.5 380.0L627.0 379.5L627.0 380.5ZM844.5 380.0L845.0 379.5L845.0 380.5ZM918.5 380.0L919.0 379.5L919.0 380.5ZM815.5 381.0L816.0 380.5L816.0 381.5ZM888.5 381.0L889.0 380.5L889.0 381.5ZM630.5 385.0L631.0 384.5L631.0 385.5ZM700.5 385.0L701.0 384.5L701.0 385.5ZM849.5 385.0L850.0 384.5L850.0 385.5ZM884.5 385.0L885.0 384.5L885.0 385.5ZM916.5 385.0L917.0 384.5L917.0 385.5ZM735.5 387.0L736.0 386.5L736.0 387.5ZM852.5 387.0L853.0 386.5L853.0 387.5ZM881.5 387.0L882.0 386.5L882.0 387.5ZM737.5 388.0L738.0 387.5L738.0 388.5ZM854.5 388.0L855.0 387.5L855.0 388.5ZM879.5 388.0L880.0 387.5L880.0 388.5ZM819.5 389.0L820.0 388.5L820.0 389.5ZM634.5 390.0L635.0 389.5L635.0 390.5ZM703.5 390.0L704.0 389.5L704.0 390.5ZM763.5 390.0L764.0 389.5L764.0 390.5ZM860.5 390.0L861.0 389.5L861.0 390.5ZM873.5 390.0L874.0 389.5L874.0 390.5ZM414.5 391.0L444.0 390.5L445.0 391.5L454.0 391.5L455.0 392.5L460.0 392.5L461.0 393.5L468.0 394.5L478.5 401.0L475.0 401.5L474.0 400.5L468.0 400.5L467.0 399.5L456.0 399.5L455.0 398.5L413.0 398.5L410.0 399.5L406.5 403.0L406.5 407.0L414.5 418.0L416.5 423.0L418.5 449.0L419.5 450.0L420.5 459.0L423.5 465.0L428.0 469.5L434.0 472.5L441.0 473.5L442.0 474.5L448.0 474.5L449.0 475.5L475.0 475.5L476.0 474.5L482.0 474.5L492.0 471.5L496.0 468.5L496.5 475.0L489.0 478.5L481.5 487.0L481.5 491.0L484.0 492.5L496.0 490.5L495.5 496.0L489.0 501.5L483.0 501.5L482.0 502.5L452.0 503.5L451.0 504.5L426.0 504.5L425.0 503.5L420.0 503.5L415.5 501.0L413.5 486.0L409.5 479.0L405.0 475.5L402.0 474.5L394.0 474.5L368.0 462.5L344.0 455.5L344.0 454.5L348.0 454.5L349.0 453.5L361.0 453.5L362.0 452.5L386.0 452.5L393.0 454.5L405.0 460.5L411.0 465.5L415.0 466.5L416.5 465.0L416.5 455.0L415.5 454.0L413.5 435.0L412.5 434.0L412.5 430.0L410.5 426.0L410.5 423.0L405.5 413.0L402.0 409.5L398.0 407.5L395.0 407.5L394.0 406.5L386.0 407.5L374.0 412.5L369.0 413.5L366.0 415.5L315.0 432.5L312.5 432.0L392.0 395.5L406.0 391.5L414.0 391.5ZM749.5 391.0L758.0 390.5L758.0 391.5L750.0 391.5ZM790.5 391.0L791.0 390.5L795.5 395.0L795.0 395.5L791.0 391.5ZM911.5 393.0L912.0 392.5L912.0 393.5ZM706.5 394.0L707.0 393.5L708.5 395.0L707.0 394.5ZM639.5 396.0L640.0 395.5L640.0 396.5ZM573.5 397.0L574.0 396.5L574.0 397.5ZM572.5 400.0L573.0 399.5L573.0 400.5ZM643.5 401.0L644.0 400.5L644.0 401.5ZM713.5 401.0L714.0 400.5L714.0 401.5ZM571.5 402.0L572.0 401.5L572.0 402.5ZM902.5 402.0L903.0 401.5L903.0 402.5ZM787.5 403.0L788.0 402.5L788.0 403.5ZM899.5 404.0L900.0 403.5L900.0 404.5ZM719.5 405.0L720.0 404.5L720.0 405.5ZM784.5 405.0L785.0 404.5L785.0 405.5ZM568.5 406.0L569.0 405.5L569.0 406.5ZM721.5 406.0L722.0 405.5L722.0 406.5ZM837.5 406.0L838.0 405.5L838.0 406.5ZM648.5 407.0L649.0 406.5L651.5 409.0L649.0 407.5ZM723.5 407.0L724.0 406.5L724.0 407.5ZM894.5 407.0L895.0 406.5L895.0 407.5ZM725.5 408.0L726.0 407.5L726.0 408.5ZM564.5 409.0L565.0 408.5L565.0 409.5ZM776.5 409.0L777.0 408.5L777.0 409.5ZM843.5 409.0L844.0 408.5L844.0 409.5ZM773.5 410.0L774.0 409.5L774.0 410.5ZM556.5 411.0L558.0 410.5L558.5 411.0L557.0 411.5ZM654.5 411.0L656.0 410.5L656.5 411.0L655.0 411.5ZM679.5 411.0L680.0 410.5L680.0 411.5ZM734.5 411.0L735.0 410.5L735.0 411.5ZM849.5 411.0L850.0 410.5L850.0 411.5ZM883.5 411.0L884.0 410.5L884.0 411.5ZM765.5 412.0L766.0 411.5L766.0 412.5ZM853.5 412.0L854.0 411.5L854.0 412.5ZM879.5 412.0L880.0 411.5L880.0 412.5ZM747.5 413.0L751.0 412.5L751.0 413.5L748.0 413.5ZM752.5 413.0L757.0 412.5L757.0 413.5L753.0 413.5ZM860.5 413.0L863.0 412.5L863.0 413.5L861.0 413.5ZM870.5 413.0L872.0 412.5L872.5 413.0L871.0 413.5ZM491.5 415.0L497.5 418.0L500.5 423.0L500.5 427.0L501.5 428.0L501.5 438.0L499.0 439.5L496.5 437.0L495.5 429.0L491.5 416.0ZM310.5 433.0L312.0 432.5L312.5 433.0L311.0 433.5ZM1284.5 458.0L1285.5 458.0L1284.0 459.5L1284.0 458.5ZM1285.5 460.0L1286.0 459.5L1286.0 460.5ZM684.5 462.0L686.0 461.5L686.5 462.0L685.0 462.5ZM687.5 462.0L689.0 461.5L689.5 462.0L688.0 462.5ZM1003.5 462.0L1007.0 461.5L1007.0 462.5L1004.0 462.5ZM1190.5 462.0L1194.0 461.5L1194.0 462.5L1191.0 462.5ZM666.5 463.0L667.0 462.5L667.0 463.5ZM811.5 463.0L812.5 463.0L812.5 464.0L811.5 464.0ZM817.5 463.0L818.5 463.0L818.5 466.0L817.5 466.0L817.5 464.0ZM856.5 463.0L857.0 462.5L857.0 463.5ZM911.5 463.0L912.5 463.0L912.5 464.0L911.5 464.0ZM999.5 463.0L1000.0 462.5L1000.0 463.5ZM1010.5 463.0L1011.0 462.5L1011.0 463.5ZM1127.5 463.0L1128.0 462.5L1128.0 463.5ZM1154.5 463.0L1155.0 462.5L1155.0 463.5ZM1171.5 463.0L1172.0 462.5L1172.0 463.5ZM1186.5 463.0L1187.0 462.5L1187.0 463.5ZM1197.5 463.0L1198.0 462.5L1198.0 463.5ZM1226.5 463.0L1227.0 462.5L1227.0 463.5ZM1243.5 463.0L1244.0 462.5L1244.0 463.5ZM264.5 464.0L277.0 463.5L277.0 464.5L273.0 464.5L272.0 465.5L249.0 470.5L245.0 472.5L242.0 472.5L232.0 476.5L229.0 476.5L223.0 479.5L210.0 483.5L207.0 485.5L202.0 486.5L194.0 490.5L192.0 490.5L182.0 495.5L180.5 495.0L183.0 492.5L193.0 487.5L195.0 485.5L224.0 472.5L241.0 467.5L257.0 465.5L258.0 464.5L264.0 464.5ZM693.5 464.0L694.0 463.5L694.0 464.5ZM1012.5 464.0L1013.0 463.5L1013.0 464.5ZM1184.5 464.0L1185.0 463.5L1185.0 464.5ZM1228.5 464.0L1229.0 463.5L1229.0 464.5ZM703.5 465.0L704.0 464.5L704.0 465.5ZM774.5 465.0L775.0 464.5L775.0 465.5ZM872.5 465.0L873.0 464.5L873.0 465.5ZM916.5 465.0L917.0 464.5L917.0 465.5ZM936.5 465.0L937.0 464.5L937.0 465.5ZM996.5 465.0L997.0 464.5L997.0 465.5ZM1200.5 465.0L1201.0 464.5L1202.5 466.0L1201.0 465.5ZM1293.5 465.0L1294.0 464.5L1294.0 465.5ZM650.5 466.0L651.0 465.5L651.0 466.5ZM690.5 466.0L691.0 465.5L691.0 466.5ZM897.5 466.0L898.5 466.0L898.5 472.0L897.5 472.0L897.5 467.0ZM969.5 466.0L970.0 465.5L970.0 466.5ZM1033.5 466.0L1034.0 465.5L1034.0 466.5ZM1061.5 466.0L1062.0 465.5L1062.0 466.5ZM1116.5 466.0L1117.5 466.0L1117.5 475.0L1116.5 475.0L1116.5 467.0ZM1126.5 466.0L1127.0 465.5L1127.0 466.5ZM1153.5 466.0L1154.0 465.5L1154.0 466.5ZM1225.5 466.0L1226.0 465.5L1226.0 466.5ZM327.5 467.0L342.0 466.5L343.0 467.5L350.0 467.5L351.0 468.5L354.0 468.5L355.5 470.0L355.5 472.0L354.0 473.5L345.0 475.5L338.0 478.5L335.0 478.5L324.0 483.5L322.0 483.5L297.0 496.5L284.0 505.5L272.0 515.5L260.5 527.0L246.0 544.5L244.0 544.5L242.5 542.0L248.5 533.0L254.5 526.0L276.0 505.5L285.0 498.5L306.0 485.5L321.0 478.5L337.0 473.5L336.0 471.5L327.0 471.5L326.0 472.5L318.0 472.5L317.0 473.5L307.0 474.5L274.0 484.5L260.0 491.5L258.0 491.5L256.0 493.5L240.0 501.5L220.0 515.5L209.0 525.5L207.0 525.5L205.5 524.0L205.5 522.0L222.0 507.5L240.0 495.5L259.0 485.5L261.0 485.5L278.0 477.5L287.0 475.5L294.0 472.5L306.0 470.5L307.0 469.5L318.0 468.5L319.0 467.5L327.0 467.5ZM668.5 467.0L669.0 466.5L669.0 467.5ZM680.5 467.0L681.0 466.5L681.0 467.5ZM748.5 467.0L749.0 466.5L749.0 467.5ZM836.5 467.0L837.0 466.5L837.0 467.5ZM854.5 467.0L855.0 466.5L855.0 467.5ZM994.5 467.0L995.0 466.5L995.0 467.5ZM1015.5 467.0L1016.0 466.5L1016.0 467.5ZM1243.5 467.0L1244.5 467.0L1244.5 487.0L1243.5 487.0L1243.5 468.0ZM647.5 468.0L648.0 467.5L648.0 468.5ZM651.5 468.0L652.0 467.5L652.0 468.5ZM697.5 468.0L698.0 467.5L698.0 468.5ZM1180.5 468.0L1181.0 467.5L1181.0 468.5ZM678.5 469.0L679.0 468.5L679.0 469.5ZM745.5 469.0L746.0 468.5L746.0 469.5ZM817.5 469.0L818.0 468.5L818.0 469.5ZM833.5 469.0L834.0 468.5L834.0 469.5ZM849.5 469.0L850.0 468.5L850.0 469.5ZM855.5 469.0L856.0 468.5L856.0 469.5ZM1156.5 469.0L1157.0 468.5L1157.0 469.5ZM1203.5 469.0L1204.0 468.5L1204.0 469.5ZM663.5 470.0L664.0 469.5L664.0 470.5ZM698.5 470.0L699.0 469.5L699.0 470.5ZM852.5 470.0L853.0 469.5L853.0 470.5ZM1013.5 470.0L1014.0 469.5L1014.0 470.5ZM1064.5 470.0L1065.5 470.0L1065.5 472.0L1065.0 472.5L1064.5 471.0ZM1129.5 470.0L1130.0 469.5L1130.0 470.5ZM1179.5 470.0L1180.0 469.5L1180.0 470.5ZM1228.5 470.0L1229.5 470.0L1229.5 471.0L1228.5 471.0ZM677.5 471.0L678.0 470.5L678.0 471.5ZM837.5 471.0L838.0 470.5L838.0 471.5ZM856.5 471.0L857.0 470.5L857.0 471.5ZM973.5 471.0L974.0 470.5L974.0 471.5ZM992.5 471.0L993.0 470.5L993.0 471.5ZM1017.5 471.0L1018.0 470.5L1018.0 471.5ZM673.5 472.0L674.5 472.0L674.5 473.0L673.5 473.0ZM695.5 472.0L696.0 471.5L696.0 472.5ZM817.5 472.0L818.5 472.0L818.5 487.0L817.5 487.0L817.5 473.0ZM860.5 472.0L861.0 471.5L861.0 472.5ZM1129.5 472.0L1130.0 471.5L1130.0 472.5ZM1156.5 472.0L1157.0 471.5L1157.0 472.5ZM761.5 473.0L762.0 472.5L762.0 473.5ZM833.5 473.0L834.0 472.5L834.0 473.5ZM904.5 473.0L905.0 472.5L905.0 473.5ZM906.5 473.0L909.0 472.5L909.0 473.5L907.0 473.5ZM970.5 473.0L971.0 472.5L971.0 473.5ZM1014.5 473.0L1015.0 472.5L1015.0 473.5ZM1182.5 473.0L1183.0 472.5L1183.0 473.5ZM1284.5 473.0L1285.0 472.5L1285.0 473.5ZM1290.5 473.0L1291.0 472.5L1291.0 473.5ZM665.5 474.0L666.0 473.5L666.0 474.5ZM995.5 474.0L996.5 474.0L996.5 476.0L996.0 476.5L995.5 475.0ZM1132.5 474.0L1133.0 473.5L1133.0 474.5ZM1227.5 474.0L1228.0 473.5L1228.0 474.5ZM1231.5 474.0L1232.0 473.5L1232.0 474.5ZM421.5 475.0L427.0 474.5L440.0 480.5L444.5 484.0L448.5 491.0L447.0 492.5L434.0 492.5L426.0 489.5L421.5 483.0L420.5 480.0L421.0 475.5ZM650.5 475.0L651.0 474.5L651.0 475.5ZM654.5 475.0L655.0 474.5L655.0 475.5ZM836.5 475.0L837.0 474.5L837.0 475.5ZM664.5 476.0L665.0 475.5L665.0 476.5ZM742.5 476.0L743.0 475.5L743.0 476.5ZM830.5 476.0L831.0 475.5L831.0 476.5ZM909.5 476.0L910.0 475.5L910.0 476.5ZM977.5 476.0L978.0 475.5L978.0 476.5ZM1014.5 476.0L1015.5 476.0L1015.5 477.0L1014.5 477.0ZM1066.5 476.0L1067.0 475.5L1067.0 476.5ZM1091.5 476.0L1092.0 475.5L1092.0 476.5ZM1131.5 476.0L1132.0 475.5L1132.0 476.5ZM1230.5 476.0L1231.0 475.5L1231.0 476.5ZM358.5 477.0L375.0 476.5L381.0 478.5L383.5 482.0L381.0 484.5L367.0 489.5L356.0 495.5L341.0 506.5L324.5 524.0L314.5 540.0L313.5 544.0L310.5 549.0L309.5 554.0L307.0 557.5L305.0 557.5L303.5 556.0L303.5 554.0L309.5 541.0L309.5 539.0L318.5 524.0L326.5 514.0L338.0 502.5L347.0 495.5L358.0 488.5L370.0 483.5L371.0 481.5L360.0 481.5L343.0 486.5L328.0 493.5L311.0 504.5L290.5 524.0L277.5 542.0L274.5 549.0L272.0 551.5L270.0 551.5L268.5 550.0L269.5 546.0L276.5 534.0L285.5 522.0L301.0 506.5L323.0 490.5L347.0 479.5L350.0 479.5L354.0 477.5L358.0 477.5ZM660.5 477.0L661.0 476.5L661.0 477.5ZM673.5 477.0L674.0 476.5L674.0 477.5ZM897.5 477.0L898.5 477.0L898.5 483.0L897.5 483.0L897.5 478.0ZM1182.5 477.0L1183.0 476.5L1183.0 477.5ZM695.5 478.0L696.0 477.5L696.0 478.5ZM849.5 478.0L850.0 477.5L850.0 478.5ZM974.5 478.0L975.0 477.5L975.0 478.5ZM1064.5 478.0L1065.0 477.5L1065.0 478.5ZM1129.5 478.0L1130.0 477.5L1130.0 478.5ZM1204.5 478.0L1205.0 477.5L1205.0 478.5ZM1228.5 478.0L1229.0 477.5L1229.0 478.5ZM832.5 479.0L833.0 478.5L833.0 479.5ZM1017.5 479.0L1018.0 478.5L1018.0 479.5ZM1127.5 479.0L1128.0 478.5L1128.0 479.5ZM1200.5 479.0L1201.0 478.5L1201.0 479.5ZM656.5 480.0L657.0 479.5L657.0 480.5ZM698.5 480.0L699.0 479.5L699.0 480.5ZM1063.5 480.0L1064.0 479.5L1064.0 480.5ZM1223.5 480.0L1224.0 479.5L1224.0 480.5ZM1227.5 480.0L1228.0 479.5L1228.0 480.5ZM426.5 481.0L429.0 480.5L437.0 484.5L439.5 487.0L434.0 487.5L431.0 486.5L426.5 482.0ZM495.5 481.0L496.5 481.0L496.5 484.0L493.0 485.5L489.5 485.0L495.0 481.5ZM745.5 481.0L746.0 480.5L746.0 481.5ZM864.5 481.0L865.0 480.5L865.0 481.5ZM881.5 481.0L882.0 480.5L882.0 481.5ZM993.5 481.0L994.0 480.5L994.0 481.5ZM997.5 481.0L998.0 480.5L999.5 482.0L998.0 481.5ZM1060.5 481.0L1061.0 480.5L1061.0 481.5ZM1152.5 481.0L1153.0 480.5L1153.0 481.5ZM1199.5 481.0L1200.5 481.0L1198.0 483.5L1199.0 481.5ZM1203.5 481.0L1204.0 480.5L1204.0 481.5ZM653.5 482.0L654.0 481.5L654.0 482.5ZM675.5 482.0L676.0 481.5L676.0 482.5ZM697.5 482.0L698.0 481.5L698.0 482.5ZM830.5 482.0L831.0 481.5L831.0 482.5ZM847.5 482.0L848.0 481.5L848.0 482.5ZM871.5 482.0L873.0 481.5L873.5 482.0L872.0 482.5ZM1171.5 482.0L1172.5 482.0L1172.5 486.0L1171.5 486.0L1171.5 483.0ZM661.5 483.0L662.0 482.5L662.0 483.5ZM865.5 483.0L866.0 482.5L866.0 483.5ZM943.5 483.0L944.0 482.5L944.0 483.5ZM978.5 483.0L979.0 482.5L979.0 483.5ZM1015.5 483.0L1016.0 482.5L1016.0 483.5ZM1181.5 483.0L1182.0 482.5L1182.0 483.5ZM1229.5 483.0L1230.0 482.5L1230.0 483.5ZM747.5 484.0L748.0 483.5L748.0 484.5ZM874.5 484.0L875.0 483.5L875.0 484.5ZM1001.5 484.0L1002.0 483.5L1002.0 484.5ZM1062.5 484.0L1063.0 483.5L1063.0 484.5ZM1116.5 484.0L1117.5 484.0L1117.5 487.0L1116.5 487.0L1116.5 485.0ZM1154.5 484.0L1155.0 483.5L1155.0 484.5ZM1195.5 484.0L1196.0 483.5L1196.0 484.5ZM832.5 485.0L833.0 484.5L833.0 485.5ZM842.5 485.0L843.0 484.5L843.0 485.5ZM870.5 485.0L871.0 484.5L872.5 486.0L871.0 485.5ZM944.5 485.0L945.5 485.0L945.5 486.0L944.5 486.0ZM1013.5 485.0L1014.0 484.5L1014.0 485.5ZM1183.5 485.0L1184.0 484.5L1184.0 485.5ZM679.5 486.0L680.0 485.5L680.0 486.5ZM693.5 486.0L694.0 485.5L694.0 486.5ZM681.5 487.0L682.0 486.5L682.0 487.5ZM711.5 487.0L712.0 486.5L712.0 487.5ZM729.5 487.0L730.0 486.5L730.0 487.5ZM749.5 487.0L750.0 486.5L750.0 487.5ZM837.5 487.0L838.0 486.5L838.0 487.5ZM841.5 487.0L842.0 486.5L842.0 487.5ZM863.5 487.0L864.0 486.5L864.0 487.5ZM1033.5 487.0L1034.0 486.5L1034.0 487.5ZM1048.5 487.0L1049.0 486.5L1049.0 487.5ZM1051.5 487.0L1052.0 486.5L1052.0 487.5ZM1064.5 487.0L1065.0 486.5L1065.0 487.5ZM1140.5 487.0L1141.0 486.5L1141.0 487.5ZM1160.5 487.0L1161.0 486.5L1161.0 487.5ZM1196.5 487.0L1197.0 486.5L1197.0 487.5ZM1215.5 487.0L1216.0 486.5L1216.0 487.5ZM1261.5 487.0L1262.0 486.5L1262.0 487.5ZM942.5 492.0L943.0 491.5L943.0 492.5ZM178.5 496.0L180.0 495.5L180.5 496.0L179.0 496.5Z"></path>
</svg>